<svg width="1024" height="384" viewBox="0 0 1024 384" fill="none" xmlns="http://www.w3.org/2000/svg">
<rect width="1024" height="384" fill="url(#paint0_linear_1_2)"/>
<path d="M316.5 173.5V165H308V114H325V148H333.5V114H342V148H350.5V114H367.5V165H359V173.5H350.5V165H342V156.5H333.5V165H325V173.5H316.5ZM384.5 173.5V165H376V122.5H384.5V114H427V122.5H435.5V165H427V173.5H384.5ZM393 165H418.5V122.5H393V165ZM444 173.5V114H495V122.5H503.5V148H486.5V156.5H495V165H503.5V173.5H478V165H469.5V156.5H461V173.5H444ZM461 148H478V139.5H486.5V122.5H461V148ZM512 173.5V114H554.5V122.5H563V131H571.5V156.5H563V165H554.5V173.5H512ZM529 165H546V156.5H554.5V131H546V122.5H529V165ZM588.5 173.5V114H605.5V165H639.5V173.5H588.5ZM648 173.5V114H707.5V122.5H665V139.5H699V148H665V165H707.5V173.5H648Z" fill="white"/>
<path d="M404 222.75V207H417.5V209.25H419.75V213.75H417.5V216H419.75V220.5H417.5V222.75H404ZM408.5 213.75H415.25V209.25H408.5V213.75ZM408.5 220.5H415.25V216H408.5V220.5ZM428.75 222.75V216H426.5V213.75H424.25V207H428.75V213.75H433.25V207H437.75V213.75H435.5V216H433.25V222.75H428.75ZM460.25 222.75V220.5H458V207H462.5V220.5H469.25V207H473.75V220.5H471.5V222.75H460.25ZM476 222.75V207H480.5V209.25H482.75V211.5H485V213.75H487.25V207H491.75V222.75H487.25V218.25H485V216H482.75V213.75H480.5V222.75H476ZM494 222.75V207H505.25V209.25H507.5V211.5H509.75V218.25H507.5V220.5H505.25V222.75H494ZM498.5 220.5H503V218.25H505.25V211.5H503V209.25H498.5V220.5ZM512 222.75V207H527.75V209.25H516.5V213.75H525.5V216H516.5V220.5H527.75V222.75H512ZM530 222.75V207H543.5V209.25H545.75V216H541.25V218.25H543.5V220.5H545.75V222.75H539V220.5H536.75V218.25H534.5V222.75H530ZM534.5 216H539V213.75H541.25V209.25H534.5V216ZM548 222.75V207H559.25V209.25H561.5V211.5H563.75V218.25H561.5V220.5H559.25V222.75H548ZM552.5 220.5H557V218.25H559.25V211.5H557V209.25H552.5V220.5ZM566 222.75V211.5H568.25V209.25H570.5V207H577.25V209.25H579.5V211.5H581.75V222.75H577.25V218.25H570.5V222.75H566ZM570.5 216H577.25V211.5H575V209.25H572.75V211.5H570.5V216ZM586.25 222.75V220.5H584V218.25H588.5V220.5H595.25V216H586.25V213.75H584V209.25H586.25V207H597.5V209.25H599.75V211.5H595.25V209.25H588.5V213.75H597.5V216H599.75V220.5H597.5V222.75H586.25ZM602 222.75V207H606.5V213.75H613.25V207H617.75V222.75H613.25V216H606.5V222.75H602ZM424.25 258.75V256.5H422V254.25H424.25V252H433.25V249.75H424.25V247.5H435.5V249.75H437.75V258.75H424.25ZM426.5 256.5H433.25V254.25H426.5V256.5ZM444.5 258.75V254.25H449V258.75H444.5ZM458 258.75V243H462.5V252H467V249.75H469.25V247.5H473.75V249.75H471.5V252H469.25V254.25H471.5V256.5H473.75V258.75H469.25V256.5H467V254.25H462.5V258.75H458ZM480.5 258.75V254.25H485V258.75H480.5ZM496.25 258.75V256.5H494V254.25H496.25V252H505.25V249.75H496.25V247.5H507.5V249.75H509.75V258.75H496.25ZM498.5 256.5H505.25V254.25H498.5V256.5ZM536.75 258.75V245.25H532.25V243H545.75V245.25H541.25V258.75H536.75ZM548 258.75V247.5H550.25V245.25H552.5V243H559.25V245.25H561.5V247.5H563.75V258.75H559.25V254.25H552.5V258.75H548ZM552.5 252H559.25V247.5H557V245.25H554.75V247.5H552.5V252ZM566 258.75V243H570.5V249.75H577.25V243H581.75V258.75H577.25V252H570.5V258.75H566ZM584 258.75V247.5H586.25V245.25H588.5V243H595.25V245.25H597.5V247.5H599.75V258.75H595.25V254.25H588.5V258.75H584ZM588.5 252H595.25V247.5H593V245.25H590.75V247.5H588.5V252Z" fill="white"/>
<defs>
<linearGradient id="paint0_linear_1_2" x1="-3.8147e-06" y1="192" x2="1024" y2="192" gradientUnits="userSpaceOnUse">
<stop stop-color="#11998E"/>
<stop offset="1" stop-color="#38EF7D"/>
</linearGradient>
</defs>
</svg>
